<?xml version="1.0" encoding="utf-8"?>
<!-- Generator: Adobe Illustrator 22.0.1, SVG Export Plug-In . SVG Version: 6.00 Build 0)  -->
<svg version="1.1" xmlns="http://www.w3.org/2000/svg" xmlns:xlink="http://www.w3.org/1999/xlink" x="0px" y="0px"
	 viewBox="0 0 1024 1024" style="enable-background:new 0 0 1024 1024;" xml:space="preserve">
<style type="text/css">
	.st0{fill:#35005F;}
	.st1{fill:none;stroke:#35005F;stroke-width:20;stroke-miterlimit:10;}
	.st2{fill:#FFFFFF;}
	.st3{fill:#FFCC99;}
</style>
<g id="图层_2">
	<g>
		<path class="st0" d="M512,82c58.1,0,114.4,11.4,167.4,33.8c51.2,21.7,97.2,52.7,136.7,92.2c39.5,39.5,70.5,85.5,92.2,136.7
			c22.4,53,33.8,109.3,33.8,167.4s-11.4,114.4-33.8,167.4c-21.7,51.2-52.7,97.2-92.2,136.7c-39.5,39.5-85.5,70.5-136.7,92.2
			C626.4,930.6,570.1,942,512,942s-114.4-11.4-167.4-33.8c-51.2-21.7-97.2-52.7-136.7-92.2c-39.5-39.5-70.5-85.5-92.2-136.7
			C93.4,626.4,82,570.1,82,512s11.4-114.4,33.8-167.4c21.7-51.2,52.7-97.2,92.2-136.7c39.5-39.5,85.5-70.5,136.7-92.2
			C397.6,93.4,453.9,82,512,82 M512,62C263.5,62,62,263.5,62,512s201.5,450,450,450s450-201.5,450-450S760.5,62,512,62L512,62z"/>
	</g>
</g>
<g id="图层_4">
	<g>
		<line class="st1" x1="536" y1="225" x2="324" y2="512"/>
	</g>
	<line class="st1" x1="324" y1="712" x2="736" y2="712"/>
	<line class="st1" x1="530" y1="435" x2="324" y2="712"/>
	<line class="st1" x1="324" y1="512" x2="473" y2="512"/>
</g>
<g id="图层_3">
	<g>
		<circle class="st2" cx="530" cy="435" r="48.5"/>
		<path class="st3" d="M530,401c18.7,0,34,15.3,34,34s-15.3,34-34,34c-18.7,0-34-15.3-34-34S511.3,401,530,401 M530,372
			c-34.8,0-63,28.2-63,63s28.2,63,63,63s63-28.2,63-63S564.8,372,530,372L530,372z"/>
	</g>
	<g>
		<circle class="st2" cx="324" cy="712" r="35.5"/>
		<path class="st0" d="M324,691c11.6,0,21,9.4,21,21s-9.4,21-21,21s-21-9.4-21-21S312.4,691,324,691 M324,662c-27.6,0-50,22.4-50,50
			s22.4,50,50,50s50-22.4,50-50S351.6,662,324,662L324,662z"/>
	</g>
	<g>
		<circle class="st2" cx="686" cy="712" r="35.5"/>
		<path class="st0" d="M686,691c11.6,0,21,9.4,21,21s-9.4,21-21,21s-21-9.4-21-21S674.4,691,686,691 M686,662c-27.6,0-50,22.4-50,50
			s22.4,50,50,50s50-22.4,50-50S713.6,662,686,662L686,662z"/>
	</g>
	<g>
		<circle class="st2" cx="536" cy="225" r="35.5"/>
		<path class="st0" d="M536,204c11.6,0,21,9.4,21,21s-9.4,21-21,21s-21-9.4-21-21S524.4,204,536,204 M536,175c-27.6,0-50,22.4-50,50
			s22.4,50,50,50s50-22.4,50-50S563.6,175,536,175L536,175z"/>
	</g>
	<g>
		<circle class="st2" cx="324" cy="512" r="35.5"/>
		<path class="st0" d="M324,491c11.6,0,21,9.4,21,21s-9.4,21-21,21s-21-9.4-21-21S312.4,491,324,491 M324,462c-27.6,0-50,22.4-50,50
			s22.4,50,50,50s50-22.4,50-50S351.6,462,324,462L324,462z"/>
	</g>
</g>
</svg>
